<?xml version="1.0" encoding="utf-8"?>
<!-- Generator: Adobe Illustrator 28.2.0, SVG Export Plug-In . SVG Version: 6.00 Build 0)  -->
<svg version="1.1" id="Layer_1" xmlns="http://www.w3.org/2000/svg" xmlns:xlink="http://www.w3.org/1999/xlink" x="0px" y="0px"
	 viewBox="0 0 30 29" style="enable-background:new 0 0 30 29;" xml:space="preserve">
<style type="text/css">
	.st0{fill:#ACB5BC;}
	.st1{fill-rule:evenodd;clip-rule:evenodd;fill:#ACB5BC;}
</style>
<path class="st0" d="M14.5,29c-2.4,0-4.8,0-7.2,0C3.2,29,0,25.8,0,21.7c0-4.8,0-9.6,0-14.4C0,3.2,3.2,0,7.3,0c4.8,0,9.6,0,14.4,0
	C25.8,0,29,3.2,29,7.3c0,4.8,0,9.6,0,14.4c0,4.1-3.2,7.2-7.2,7.3C19.3,29,16.9,29,14.5,29z M14.5,27h6.9c3.3,0,5.5-2.2,5.5-5.5
	c0-4.7,0-9.3,0-14C27,4.2,24.8,2,21.5,2c-4.6,0-9.3,0-13.9,0C4.2,2,2,4.2,2,7.6c0,4.6,0,9.2,0,13.8C2,24.8,4.2,27,7.6,27
	C9.9,27,12.2,27,14.5,27z"/>
<g id="XMLID_6_">
	<path id="XMLID_147_" class="st1" d="M12.7,27.4h4v-9.3h3l0.6-3.8h-3.6v-2.8c0-1.1,1-1.7,2-1.7h1.7V6.7l-3.1-0.1
		c-3-0.2-4.6,2.2-4.6,5v2.8H9.3v3.8h3.4V27.4z"/>
</g>
</svg>
